# xmcd CD database file
#
# Track frame offsets:
#	180
#	19195
#	33334
#	51123
#	67513
#	82635
#	96858
#	110818
#	124588
#	142651
#	161533
#	178765
#	199812
#	215191
#	230423
#	250972
#	263782
#	277633
#
# Disc length: 3886 seconds
#
# Revision: 0
# Processed by: cddbd v1.5.2PL0 Copyright (c) Steve Scherf et al.
# Submitted via: CDex 1.51
#
DISCID=ec0f2c12
DTITLE=Ben Webster - Jazz Sax Masters CD 1
DYEAR=2006
DGENRE=Jazz
TTITLE0=Jive At Six
TTITLE1=Don't Get Around Much Any More
TTITLE2=Chelsea Bridge
TTITLE3=Danny Boy
TTITLE4=Love's Away
TTITLE5=You're Mine, You!
TTITLE6=Sophisticated Lady
TTITLE7=Tenderly
TTITLE8=Almost Like Being In Love
TTITLE9=Until Tonight
TTITLE10=That's All
TTITLE11=Willow Weep For Me
TTITLE12=My Funny Valentine
TTITLE13=Cotton Tail
TTITLE14=Bounce Blues
TTITLE15=Pennies From Heaven
TTITLE16=Cadillac Slim
TTITLE17=Mobile Bay
EXTD=YEAR: 2006
EXTT0=
EXTT1=
EXTT2=
EXTT3=
EXTT4=
EXTT5=
EXTT6=
EXTT7=
EXTT8=
EXTT9=
EXTT10=
EXTT11=
EXTT12=
EXTT13=
EXTT14=
EXTT15=
EXTT16=
EXTT17=
PLAYORDER=
